<svg width="642" height="181" viewBox="0 0 642 181" xmlns="http://www.w3.org/2000/svg">
    <g fill="#332C5A" fill-rule="evenodd">
        <path d="M204.645 124.769V78.792l38.285-10.255 38.285 10.255v45.977h-76.57zM380.175 124.769V47.515l26.15-17.605 25.98 17.605v77.254h-52.13z" fill-opacity=".5" fill-rule="nonzero"/>
        <path d="M183.11 12.306v112.463h-45.806V12.306h45.805z" fill-opacity=".5"/>
        <path d="M334.37 124.769V12.306h16.92c15.896 0 28.885 12.99 28.885 28.885v83.578H334.37z" fill-opacity=".5" fill-rule="nonzero"/>
        <path d="M311.125 93.833v31.62h-91.953v-31.62h91.953z"/>
        <path d="M301.896 64.777v31.62h-31.62v-31.62h31.62zM74.748 0v124.598H.4V0h74.348z"/>
        <path d="M74.748 124.769V71.785l74.178-28.543v81.527H74.748zM175.93 124.769V52.984l21.707-16.237 21.706 16.237v71.785h-43.412zM369.407 124.769v-38.97l16.58-8.716 16.578 8.717v38.969h-33.158zM414.53 24.27v-3.59l23.073-8.887 23.074 8.888v3.59h-46.148z" fill-rule="nonzero"/>
        <path d="M345.65 22.22v102.72h-34.696V22.22h34.696z"/>
        <path d="M339.326 0v102.72H317.45V0h21.877zM641.335 61.359V181H460.164V61.359h181.17z"/>
        <path d="M460.677 44.438v102.72h-46.148V44.439h46.148z"/>
        <path d="M428.544 24.27v102.72H418.29V24.27h10.255zM456.916 24.27v102.72h-10.255V24.27h10.255z"/>
    </g>
</svg>
